<svg xmlns="http://www.w3.org/2000/svg" version="1.1" xmlns:xlink="http://www.w3.org/1999/xlink" xmlns:svgjs="http://svgjs.dev/svgjs" width="1500" height="1500" viewBox="0 0 1500 1500"><rect width="1500" height="1500" fill="#000000"></rect><g transform="matrix(0.6666666666666666,0,0,0.6666666666666666,249.39393939393938,552.3941861204164)"><svg viewBox="0 0 396 156" data-background-color="#ffffff" preserveAspectRatio="xMidYMid meet" height="590" width="1500" xmlns="http://www.w3.org/2000/svg" xmlns:xlink="http://www.w3.org/1999/xlink"><g id="tight-bounds" transform="matrix(1,0,0,1,0.2400000000000091,0.3724753352924921)"><svg viewBox="0 0 395.52 155.25504932941502" height="155.25504932941502" width="395.52"><g><svg viewBox="0 0 595.4732352196079 233.74349339696244" height="155.25504932941502" width="395.52"><g><rect width="5.602258442582154" height="233.74349339696244" x="256.7421992726154" y="0" fill="#ffffff" opacity="1" stroke-width="0" stroke="transparent" fill-opacity="1" class="rect-yte-0" data-fill-palette-color="primary" rx="1%" id="yte-0" data-palette-color="#2672de"></rect></g><g transform="matrix(1,0,0,1,277.01005573242827,0.5814514761118375)"><svg viewBox="0 0 318.4631794871795 232.58059044473876" height="232.58059044473876" width="318.4631794871795"><g id="textblocktransform"><svg viewBox="0 0 318.4631794871795 232.58059044473876" height="232.58059044473876" width="318.4631794871795" id="textblock"><g><svg viewBox="0 0 318.4631794871795 198.764" height="198.764" width="318.4631794871795"><g transform="matrix(1,0,0,1,0,0)"><svg width="318.4631794871795" viewBox="0.29999999999999966 -25.750000000000004 231.2 122.35000000000001" height="198.764" data-palette-color="#2672de"><svg></svg><svg></svg><svg></svg><g class="wordmark-text-0" data-fill-palette-color="primary" id="text-0"><path d="M12.4 0.4v0c-1.833 0-3.383-0.41-4.65-1.23-1.267-0.813-2.223-1.937-2.87-3.37-0.653-1.433-0.98-3.1-0.98-5v0-16.15h4.45v16.15c0 1.933 0.443 3.423 1.33 4.47 0.88 1.053 2.22 1.58 4.02 1.58v0c1.3 0 2.527-0.31 3.68-0.93 1.147-0.613 2.203-1.47 3.17-2.57v0-18.7h4.45v25.35h-2.65c-0.667 0-1.067-0.317-1.2-0.95v0l-0.35-2.7c-1.1 1.2-2.333 2.173-3.7 2.92-1.367 0.753-2.933 1.13-4.7 1.13zM28.6 0h-5.1l0.55-3.9 3.75 0.8c0.267 0.033 0.467 0.14 0.6 0.32 0.133 0.187 0.2 0.43 0.2 0.73v0zM0.3-25.35h5.1l-0.55 3.9-3.75-0.8c-0.267-0.067-0.467-0.183-0.6-0.35-0.133-0.167-0.2-0.4-0.2-0.7v0zM16.95-25.35h5.1l-0.55 3.9-3.75-0.8c-0.267-0.067-0.467-0.183-0.6-0.35-0.133-0.167-0.2-0.4-0.2-0.7v0zM38.7 0h-4.45v-25.35h2.65c0.667 0 1.067 0.317 1.2 0.95v0l0.35 2.75c1.1-1.233 2.333-2.227 3.7-2.98 1.367-0.747 2.933-1.12 4.7-1.12v0c1.867 0 3.427 0.4 4.68 1.2 1.247 0.8 2.197 1.923 2.85 3.37 0.647 1.453 0.97 3.13 0.97 5.03v0 16.15h-4.45v-16.15c0-1.9-0.44-3.383-1.32-4.45-0.887-1.067-2.23-1.6-4.03-1.6v0c-1.3 0-2.523 0.317-3.67 0.95-1.153 0.633-2.213 1.5-3.18 2.6v0zM35.75 0h-5.1v-2.05c0-0.3 0.067-0.543 0.2-0.73 0.133-0.18 0.333-0.287 0.6-0.32v0l3.75-0.8zM42.3 0h-5.1l0.55-3.9 3.75 0.8c0.267 0.033 0.467 0.14 0.6 0.32 0.133 0.187 0.2 0.43 0.2 0.73v0zM58.95 0h-5.1l0.55-3.9 3.75 0.8c0.267 0.033 0.467 0.14 0.6 0.32 0.133 0.187 0.2 0.43 0.2 0.73v0zM30.65-25.35h5.1l-0.55 3.9-3.75-0.8c-0.267-0.067-0.467-0.183-0.6-0.35-0.133-0.167-0.2-0.4-0.2-0.7v0zM69.55 0.4v0c-1.2 0-2.54-0.133-4.02-0.4-1.487-0.267-2.763-0.6-3.83-1v0-3.7l2.2 0.5c0.433 0.3 1.123 0.607 2.07 0.92 0.953 0.32 2.063 0.48 3.33 0.48v0c1.9 0 3.3-0.393 4.2-1.18 0.9-0.78 1.35-1.737 1.35-2.87v0c0-1-0.3-1.767-0.9-2.3-0.6-0.533-1.4-0.967-2.4-1.3-1-0.333-2.083-0.683-3.25-1.05v0c-1.2-0.4-2.3-0.867-3.3-1.4-1-0.533-1.8-1.227-2.4-2.08-0.6-0.847-0.9-1.92-0.9-3.22v0c0-1.5 0.393-2.817 1.18-3.95 0.78-1.133 1.847-2.017 3.2-2.65 1.347-0.633 2.87-0.95 4.57-0.95v0c0.967 0 2.043 0.117 3.23 0.35 1.18 0.233 2.47 0.583 3.87 1.05v0 3l-2.65-0.35c-0.7-0.2-1.41-0.367-2.13-0.5-0.713-0.133-1.403-0.2-2.07-0.2v0c-0.967 0-1.823 0.15-2.57 0.45-0.753 0.3-1.347 0.717-1.78 1.25-0.433 0.533-0.65 1.15-0.65 1.85v0c0 0.933 0.357 1.673 1.07 2.22 0.72 0.553 1.597 0.997 2.63 1.33 1.033 0.333 2.017 0.65 2.95 0.95v0c1.1 0.333 2.14 0.767 3.12 1.3 0.987 0.533 1.797 1.233 2.43 2.1 0.633 0.867 0.95 2 0.95 3.4v0c0 1.5-0.39 2.85-1.17 4.05-0.787 1.2-1.887 2.15-3.3 2.85-1.42 0.7-3.097 1.05-5.03 1.05zM75.05-18.65l-0.5-3.75 3.2 0.65v3.9h-1.65c-0.333 0-0.583-0.073-0.75-0.22-0.167-0.153-0.267-0.347-0.3-0.58zM64.4-6.8l0.5 3.75-3.2-0.65v-3.9h1.65c0.367 0 0.627 0.073 0.78 0.22 0.147 0.153 0.237 0.347 0.27 0.58zM94.7 0.35v0c-2.433 0-4.557-0.55-6.37-1.65-1.82-1.1-3.23-2.667-4.23-4.7-1-2.033-1.5-4.433-1.5-7.2v0c0-2.367 0.483-4.5 1.45-6.4 0.967-1.9 2.343-3.4 4.13-4.5 1.78-1.1 3.87-1.65 6.27-1.65v0c2.1 0 3.933 0.467 5.5 1.4 1.567 0.933 2.793 2.24 3.68 3.92 0.88 1.687 1.32 3.697 1.32 6.03v0c0 0.7-0.073 1.167-0.22 1.4-0.153 0.233-0.447 0.35-0.88 0.35v0h-16.85c0 0.1 0 0.207 0 0.32 0 0.12 0 0.23 0 0.33v0c0.167 2.8 0.95 4.973 2.35 6.52 1.4 1.553 3.3 2.33 5.7 2.33v0c1.033 0 2.06-0.21 3.08-0.63 1.013-0.413 1.913-0.82 2.7-1.22 0.78-0.4 1.337-0.6 1.67-0.6v0c0.367 0 0.65 0.133 0.85 0.4v0l1.25 1.65c-0.667 0.867-1.557 1.59-2.67 2.17-1.12 0.587-2.313 1.02-3.58 1.3-1.267 0.287-2.483 0.43-3.65 0.43zM87.15-15.45v0h13.8c0-2.067-0.567-3.75-1.7-5.05-1.133-1.3-2.7-1.95-4.7-1.95v0c-2.167 0-3.867 0.617-5.1 1.85-1.233 1.233-2 2.95-2.3 5.15zM120.45 0.35v0c-2.433 0-4.557-0.55-6.37-1.65-1.82-1.1-3.23-2.667-4.23-4.7-1-2.033-1.5-4.433-1.5-7.2v0c0-2.367 0.483-4.5 1.45-6.4 0.967-1.9 2.343-3.4 4.13-4.5 1.78-1.1 3.87-1.65 6.27-1.65v0c2.1 0 3.933 0.467 5.5 1.4 1.567 0.933 2.793 2.24 3.68 3.92 0.88 1.687 1.32 3.697 1.32 6.03v0c0 0.7-0.073 1.167-0.22 1.4-0.153 0.233-0.447 0.35-0.88 0.35v0h-16.85c0 0.1 0 0.207 0 0.32 0 0.12 0 0.23 0 0.33v0c0.167 2.8 0.95 4.973 2.35 6.52 1.4 1.553 3.3 2.33 5.7 2.33v0c1.033 0 2.06-0.21 3.08-0.63 1.013-0.413 1.913-0.82 2.7-1.22 0.78-0.4 1.337-0.6 1.67-0.6v0c0.367 0 0.65 0.133 0.85 0.4v0l1.25 1.65c-0.667 0.867-1.557 1.59-2.67 2.17-1.12 0.587-2.313 1.02-3.58 1.3-1.267 0.287-2.483 0.43-3.65 0.43zM112.9-15.45v0h13.8c0-2.067-0.567-3.75-1.7-5.05-1.133-1.3-2.7-1.95-4.7-1.95v0c-2.167 0-3.867 0.617-5.1 1.85-1.233 1.233-2 2.95-2.3 5.15zM141.85 0h-4.45v-25.35h2.65c0.667 0 1.067 0.317 1.2 0.95v0l0.35 2.75c1.1-1.233 2.333-2.227 3.7-2.98 1.367-0.747 2.933-1.12 4.7-1.12v0c1.867 0 3.427 0.4 4.68 1.2 1.247 0.8 2.197 1.923 2.85 3.37 0.647 1.453 0.97 3.13 0.97 5.03v0 16.15h-4.45v-16.15c0-1.9-0.44-3.383-1.32-4.45-0.887-1.067-2.23-1.6-4.03-1.6v0c-1.3 0-2.523 0.317-3.67 0.95-1.153 0.633-2.213 1.5-3.18 2.6v0zM138.9 0h-5.1v-2.05c0-0.3 0.067-0.543 0.2-0.73 0.133-0.18 0.333-0.287 0.6-0.32v0l3.75-0.8zM145.45 0h-5.1l0.55-3.9 3.75 0.8c0.267 0.033 0.467 0.14 0.6 0.32 0.133 0.187 0.2 0.43 0.2 0.73v0zM162.1 0h-5.1l0.55-3.9 3.75 0.8c0.267 0.033 0.467 0.14 0.6 0.32 0.133 0.187 0.2 0.43 0.2 0.73v0zM133.8-25.35h5.1l-0.55 3.9-3.75-0.8c-0.267-0.067-0.467-0.183-0.6-0.35-0.133-0.167-0.2-0.4-0.2-0.7v0z" fill="#ffffff" fill-rule="nonzero" stroke="none" stroke-width="1" stroke-linecap="butt" stroke-linejoin="miter" stroke-miterlimit="10" stroke-dasharray="" stroke-dashoffset="0" font-family="none" font-weight="none" font-size="none" text-anchor="none" style="mix-blend-mode: normal" data-fill-palette-color="primary" opacity="1"></path><path transform="translate(0,48.1)" d="M12.4 0.4v0c-1.833 0-3.383-0.41-4.65-1.23-1.267-0.813-2.223-1.937-2.87-3.37-0.653-1.433-0.98-3.1-0.98-5v0-16.15h4.45v16.15c0 1.933 0.443 3.423 1.33 4.47 0.88 1.053 2.22 1.58 4.02 1.58v0c1.3 0 2.527-0.31 3.68-0.93 1.147-0.613 2.203-1.47 3.17-2.57v0-18.7h4.45v25.35h-2.65c-0.667 0-1.067-0.317-1.2-0.95v0l-0.35-2.7c-1.1 1.2-2.333 2.173-3.7 2.92-1.367 0.753-2.933 1.13-4.7 1.13zM28.6 0h-5.1l0.55-3.9 3.75 0.8c0.267 0.033 0.467 0.14 0.6 0.32 0.133 0.187 0.2 0.43 0.2 0.73v0zM0.3-25.35h5.1l-0.55 3.9-3.75-0.8c-0.267-0.067-0.467-0.183-0.6-0.35-0.133-0.167-0.2-0.4-0.2-0.7v0zM16.95-25.35h5.1l-0.55 3.9-3.75-0.8c-0.267-0.067-0.467-0.183-0.6-0.35-0.133-0.167-0.2-0.4-0.2-0.7v0zM38.7 0h-4.45v-25.35h2.65c0.667 0 1.067 0.317 1.2 0.95v0l0.35 2.75c1.1-1.233 2.333-2.227 3.7-2.98 1.367-0.747 2.933-1.12 4.7-1.12v0c1.867 0 3.427 0.4 4.68 1.2 1.247 0.8 2.197 1.923 2.85 3.37 0.647 1.453 0.97 3.13 0.97 5.03v0 16.15h-4.45v-16.15c0-1.9-0.44-3.383-1.32-4.45-0.887-1.067-2.23-1.6-4.03-1.6v0c-1.3 0-2.523 0.317-3.67 0.95-1.153 0.633-2.213 1.5-3.18 2.6v0zM35.75 0h-5.1v-2.05c0-0.3 0.067-0.543 0.2-0.73 0.133-0.18 0.333-0.287 0.6-0.32v0l3.75-0.8zM42.3 0h-5.1l0.55-3.9 3.75 0.8c0.267 0.033 0.467 0.14 0.6 0.32 0.133 0.187 0.2 0.43 0.2 0.73v0zM58.95 0h-5.1l0.55-3.9 3.75 0.8c0.267 0.033 0.467 0.14 0.6 0.32 0.133 0.187 0.2 0.43 0.2 0.73v0zM30.65-25.35h5.1l-0.55 3.9-3.75-0.8c-0.267-0.067-0.467-0.183-0.6-0.35-0.133-0.167-0.2-0.4-0.2-0.7v0zM69.05 0h-4.45v-25.35h4.45zM66.1 0h-5.1v-2.05c0-0.3 0.067-0.543 0.2-0.73 0.133-0.18 0.333-0.287 0.6-0.32v0l3.75-0.8zM72.65 0h-5.1l0.55-3.9 3.75 0.8c0.267 0.033 0.467 0.14 0.6 0.32 0.133 0.187 0.2 0.43 0.2 0.73v0zM61-25.35h5.1l-0.55 3.9-3.75-0.8c-0.267-0.067-0.467-0.183-0.6-0.35-0.133-0.167-0.2-0.4-0.2-0.7v0zM66.75-30.15v0c-0.833 0-1.567-0.317-2.2-0.95-0.633-0.633-0.95-1.367-0.95-2.2v0c0-0.867 0.317-1.617 0.95-2.25 0.633-0.633 1.367-0.95 2.2-0.95v0c0.867 0 1.617 0.317 2.25 0.95 0.633 0.633 0.95 1.383 0.95 2.25v0c0 0.833-0.317 1.567-0.95 2.2-0.633 0.633-1.383 0.95-2.25 0.95zM90.25 0h-4l-10.35-25.35h3.65c0.367 0 0.667 0.09 0.9 0.27 0.233 0.187 0.4 0.413 0.5 0.68v0l6.4 16.3c0.167 0.433 0.327 0.933 0.48 1.5 0.147 0.567 0.303 1.25 0.47 2.05v0c0.133-0.567 0.273-1.15 0.42-1.75 0.153-0.6 0.347-1.2 0.58-1.8v0l6.5-16.3c0.1-0.267 0.26-0.493 0.48-0.68 0.213-0.18 0.487-0.27 0.82-0.27v0h3.5zM82.75-24.1h-3.75v-1.25h3.75zM98.3-24.1h-3.75v-1.25h3.75zM74.2-25.35h5.1l-0.55 3.9-3.75-0.8c-0.267-0.067-0.467-0.183-0.6-0.35-0.133-0.167-0.2-0.4-0.2-0.7v0zM80.45-25.35h5.1v2.05c0 0.3-0.067 0.533-0.2 0.7-0.133 0.167-0.333 0.283-0.6 0.35v0l-3.75 0.8zM90.95-25.35h5.1l-0.55 3.9-3.75-0.8c-0.267-0.067-0.467-0.183-0.6-0.35-0.133-0.167-0.2-0.4-0.2-0.7v0zM97.2-25.35h5.1v2.05c0 0.3-0.067 0.533-0.2 0.7-0.133 0.167-0.333 0.283-0.6 0.35v0l-3.75 0.8zM116.35 0.35v0c-2.433 0-4.56-0.55-6.38-1.65-1.813-1.1-3.22-2.667-4.22-4.7-1-2.033-1.5-4.433-1.5-7.2v0c0-2.367 0.483-4.5 1.45-6.4 0.967-1.9 2.343-3.4 4.13-4.5 1.78-1.1 3.87-1.65 6.27-1.65v0c2.1 0 3.933 0.467 5.5 1.4 1.567 0.933 2.793 2.24 3.68 3.92 0.88 1.687 1.32 3.697 1.32 6.03v0c0 0.7-0.073 1.167-0.22 1.4-0.153 0.233-0.447 0.35-0.88 0.35v0h-16.85c0 0.1 0 0.207 0 0.32 0 0.12 0 0.23 0 0.33v0c0.167 2.8 0.95 4.973 2.35 6.52 1.4 1.553 3.3 2.33 5.7 2.33v0c1.033 0 2.06-0.21 3.08-0.63 1.013-0.413 1.91-0.82 2.69-1.22 0.787-0.4 1.347-0.6 1.68-0.6v0c0.367 0 0.65 0.133 0.85 0.4v0l1.25 1.65c-0.667 0.867-1.557 1.59-2.67 2.17-1.12 0.587-2.313 1.02-3.58 1.3-1.267 0.287-2.483 0.43-3.65 0.43zM108.8-15.45v0h13.8c0-2.067-0.567-3.75-1.7-5.05-1.133-1.3-2.7-1.95-4.7-1.95v0c-2.167 0-3.867 0.617-5.1 1.85-1.233 1.233-2 2.95-2.3 5.15zM137.75 0h-4.45v-25.35h2.55c0.5 0 0.85 0.09 1.05 0.27 0.2 0.187 0.317 0.513 0.35 0.98v0l0.3 3.95c0.867-1.767 1.933-3.15 3.2-4.15 1.267-1 2.767-1.5 4.5-1.5v0c0.7 0 1.333 0.083 1.9 0.25 0.567 0.167 1.083 0.383 1.55 0.65v0l-0.55 3.35c-0.033 0.2-0.123 0.35-0.27 0.45-0.153 0.1-0.33 0.15-0.53 0.15v0c-0.233 0-0.683-0.077-1.35-0.23-0.667-0.147-1.25-0.22-1.75-0.22v0c-1.533 0-2.823 0.45-3.87 1.35-1.053 0.9-1.93 2.2-2.63 3.9v0zM141.35 0h-5.1l0.55-3.9 3.75 0.8c0.267 0.033 0.467 0.14 0.6 0.32 0.133 0.187 0.2 0.43 0.2 0.73v0zM134.8 0h-5.1v-2.05c0-0.3 0.067-0.543 0.2-0.73 0.133-0.18 0.333-0.287 0.6-0.32v0l3.75-0.8zM129.7-25.35h5.1l-0.55 3.9-3.75-0.8c-0.267-0.067-0.467-0.183-0.6-0.35-0.133-0.167-0.2-0.4-0.2-0.7v0zM159.35 0.4v0c-1.2 0-2.54-0.133-4.02-0.4-1.487-0.267-2.763-0.6-3.83-1v0-3.7l2.2 0.5c0.433 0.3 1.127 0.607 2.08 0.92 0.947 0.32 2.053 0.48 3.32 0.48v0c1.9 0 3.3-0.393 4.2-1.18 0.9-0.78 1.35-1.737 1.35-2.87v0c0-1-0.3-1.767-0.9-2.3-0.6-0.533-1.4-0.967-2.4-1.3-1-0.333-2.083-0.683-3.25-1.05v0c-1.2-0.4-2.3-0.867-3.3-1.4-1-0.533-1.8-1.227-2.4-2.08-0.6-0.847-0.9-1.92-0.9-3.22v0c0-1.5 0.393-2.817 1.18-3.95 0.78-1.133 1.847-2.017 3.2-2.65 1.347-0.633 2.87-0.95 4.57-0.95v0c0.967 0 2.043 0.117 3.23 0.35 1.18 0.233 2.47 0.583 3.87 1.05v0 3l-2.65-0.35c-0.7-0.2-1.407-0.367-2.12-0.5-0.72-0.133-1.413-0.2-2.08-0.2v0c-0.967 0-1.823 0.15-2.57 0.45-0.753 0.3-1.347 0.717-1.78 1.25-0.433 0.533-0.65 1.15-0.65 1.85v0c0 0.933 0.36 1.673 1.08 2.22 0.713 0.553 1.587 0.997 2.62 1.33 1.033 0.333 2.017 0.65 2.95 0.95v0c1.1 0.333 2.14 0.767 3.12 1.3 0.987 0.533 1.797 1.233 2.43 2.1 0.633 0.867 0.95 2 0.95 3.4v0c0 1.5-0.39 2.85-1.17 4.05-0.787 1.2-1.887 2.15-3.3 2.85-1.42 0.7-3.097 1.05-5.03 1.05zM164.85-18.65l-0.5-3.75 3.2 0.65v3.9h-1.65c-0.333 0-0.583-0.073-0.75-0.22-0.167-0.153-0.267-0.347-0.3-0.58zM154.2-6.8l0.5 3.75-3.2-0.65v-3.9h1.65c0.367 0 0.627 0.073 0.78 0.22 0.147 0.153 0.237 0.347 0.27 0.58zM180.15 0h-4.45v-25.35h4.45zM177.2 0h-5.1v-2.05c0-0.3 0.067-0.543 0.2-0.73 0.133-0.18 0.333-0.287 0.6-0.32v0l3.75-0.8zM183.75 0h-5.1l0.55-3.9 3.75 0.8c0.267 0.033 0.467 0.14 0.6 0.32 0.133 0.187 0.2 0.43 0.2 0.73v0zM172.1-25.35h5.1l-0.55 3.9-3.75-0.8c-0.267-0.067-0.467-0.183-0.6-0.35-0.133-0.167-0.2-0.4-0.2-0.7v0zM177.85-30.15v0c-0.833 0-1.567-0.317-2.2-0.95-0.633-0.633-0.95-1.367-0.95-2.2v0c0-0.867 0.317-1.617 0.95-2.25 0.633-0.633 1.367-0.95 2.2-0.95v0c0.867 0 1.617 0.317 2.25 0.95 0.633 0.633 0.95 1.383 0.95 2.25v0c0 0.833-0.317 1.567-0.95 2.2-0.633 0.633-1.383 0.95-2.25 0.95zM195.3 0.4v0c-2 0-3.54-0.56-4.62-1.68-1.087-1.113-1.63-2.72-1.63-4.82v0-15.5h-3.05c-0.267 0-0.49-0.083-0.67-0.25-0.187-0.167-0.28-0.417-0.28-0.75v0-1.75l4.15-0.55 1.05-7.8c0.067-0.567 0.4-0.85 1-0.85v0h2.25v8.7h7.25v3.25h-7.25v15.2c0 1.067 0.26 1.857 0.78 2.37 0.513 0.52 1.187 0.78 2.02 0.78v0c0.367 0 0.767-0.1 1.2-0.3 0.433-0.2 0.833-0.4 1.2-0.6 0.367-0.2 0.633-0.3 0.8-0.3v0c0.233 0 0.433 0.133 0.6 0.4v0l1.3 2.15c-0.767 0.7-1.69 1.257-2.77 1.67-1.087 0.42-2.197 0.63-3.33 0.63zM214.2 8.6h-3.3l4.6-10.1-10.45-23.85h3.85c0.4 0 0.71 0.1 0.93 0.3 0.213 0.2 0.37 0.417 0.47 0.65v0l6.75 15.95c0.1 0.233 0.217 0.567 0.35 1 0.133 0.433 0.25 0.833 0.35 1.2v0c0.067-0.267 0.133-0.517 0.2-0.75 0.067-0.233 0.15-0.477 0.25-0.73 0.1-0.247 0.2-0.503 0.3-0.77v0l6.55-15.9c0.1-0.267 0.277-0.493 0.53-0.68 0.247-0.18 0.503-0.27 0.77-0.27v0h3.55l-14.1 32.85c-0.133 0.333-0.317 0.6-0.55 0.8-0.233 0.2-0.583 0.3-1.05 0.3zM212-24.1h-3.75v-1.25h3.75zM227.5-24.1h-3.75v-1.25h3.75zM203.45-25.35h5.1l-0.55 3.9-3.75-0.8c-0.267-0.067-0.467-0.183-0.6-0.35-0.133-0.167-0.2-0.4-0.2-0.7v0zM209.7-25.35h5.1v2.05c0 0.3-0.067 0.533-0.2 0.7-0.133 0.167-0.333 0.283-0.6 0.35v0l-3.75 0.8zM220.15-25.35h5.1l-0.55 3.9-3.75-0.8c-0.267-0.067-0.467-0.183-0.6-0.35-0.133-0.167-0.2-0.4-0.2-0.7v0zM226.4-25.35h5.1v2.05c0 0.3-0.067 0.533-0.2 0.7-0.133 0.167-0.333 0.283-0.6 0.35v0l-3.75 0.8z" fill="#ffffff" fill-rule="nonzero" stroke="none" stroke-width="1" stroke-linecap="butt" stroke-linejoin="miter" stroke-miterlimit="10" stroke-dasharray="" stroke-dashoffset="0" font-family="none" font-weight="none" font-size="none" text-anchor="none" style="mix-blend-mode: normal" data-fill-palette-color="primary" opacity="1"></path><path transform="translate(0,96.2)" d="M9.45 0h-4.45v-36.85h4.45zM6.5 0h-5.1v-2.05c0-0.3 0.067-0.543 0.2-0.73 0.133-0.18 0.333-0.287 0.6-0.32v0l3.75-0.8zM13.05 0h-5.1l0.55-3.9 3.75 0.8c0.267 0.033 0.467 0.14 0.6 0.32 0.133 0.187 0.2 0.43 0.2 0.73v0zM1.4-36.85h5.1l-0.55 3.9-3.75-0.8c-0.267-0.067-0.467-0.183-0.6-0.35-0.133-0.167-0.2-0.4-0.2-0.7v0zM23.4 0h-4.45v-25.35h4.45zM20.45 0h-5.1v-2.05c0-0.3 0.067-0.543 0.2-0.73 0.133-0.18 0.333-0.287 0.6-0.32v0l3.75-0.8zM27 0h-5.1l0.55-3.9 3.75 0.8c0.267 0.033 0.467 0.14 0.6 0.32 0.133 0.187 0.2 0.43 0.2 0.73v0zM15.35-25.35h5.1l-0.55 3.9-3.75-0.8c-0.267-0.067-0.467-0.183-0.6-0.35-0.133-0.167-0.2-0.4-0.2-0.7v0zM21.1-30.15v0c-0.833 0-1.567-0.317-2.2-0.95-0.633-0.633-0.95-1.367-0.95-2.2v0c0-0.867 0.317-1.617 0.95-2.25 0.633-0.633 1.367-0.95 2.2-0.95v0c0.867 0 1.617 0.317 2.25 0.95 0.633 0.633 0.95 1.383 0.95 2.25v0c0 0.833-0.317 1.567-0.95 2.2-0.633 0.633-1.383 0.95-2.25 0.95zM41.45 0.35v0c-1.067 0-2.133-0.05-3.2-0.15-1.067-0.1-2.157-0.25-3.27-0.45-1.12-0.2-2.263-0.45-3.43-0.75v0-35.85h4.45v15.15c1.033-1.2 2.243-2.177 3.63-2.93 1.38-0.747 2.937-1.12 4.67-1.12v0c2.067 0 3.81 0.533 5.23 1.6 1.413 1.067 2.487 2.54 3.22 4.42 0.733 1.887 1.1 4.08 1.1 6.58v0c0 2.633-0.417 4.967-1.25 7-0.833 2.033-2.157 3.623-3.97 4.77-1.82 1.153-4.213 1.73-7.18 1.73zM41.4-3.1v0c1.767 0 3.233-0.357 4.4-1.07 1.167-0.72 2.033-1.813 2.6-3.28 0.567-1.467 0.85-3.317 0.85-5.55v0c0-3-0.523-5.283-1.57-6.85-1.053-1.567-2.68-2.35-4.88-2.35v0c-1.433 0-2.7 0.333-3.8 1-1.1 0.667-2.1 1.617-3 2.85v0 14.45c1 0.233 1.943 0.423 2.83 0.57 0.88 0.153 1.737 0.23 2.57 0.23zM27.95-36.85h5.1l-0.55 3.9-3.75-0.8c-0.267-0.067-0.467-0.183-0.6-0.35-0.133-0.167-0.2-0.4-0.2-0.7v0zM65 0h-4.45v-25.35h2.55c0.5 0 0.85 0.09 1.05 0.27 0.2 0.187 0.317 0.513 0.35 0.98v0l0.3 3.95c0.867-1.767 1.933-3.15 3.2-4.15 1.267-1 2.767-1.5 4.5-1.5v0c0.7 0 1.333 0.083 1.9 0.25 0.567 0.167 1.083 0.383 1.55 0.65v0l-0.55 3.35c-0.033 0.2-0.123 0.35-0.27 0.45-0.153 0.1-0.33 0.15-0.53 0.15v0c-0.233 0-0.683-0.077-1.35-0.23-0.667-0.147-1.25-0.22-1.75-0.22v0c-1.533 0-2.823 0.45-3.87 1.35-1.053 0.9-1.93 2.2-2.63 3.9v0zM68.6 0h-5.1l0.55-3.9 3.75 0.8c0.267 0.033 0.467 0.14 0.6 0.32 0.133 0.187 0.2 0.43 0.2 0.73v0zM62.05 0h-5.1v-2.05c0-0.3 0.067-0.543 0.2-0.73 0.133-0.18 0.333-0.287 0.6-0.32v0l3.75-0.8zM56.95-25.35h5.1l-0.55 3.9-3.75-0.8c-0.267-0.067-0.467-0.183-0.6-0.35-0.133-0.167-0.2-0.4-0.2-0.7v0zM84.6 0.4v0c-1.333 0-2.533-0.26-3.6-0.78-1.067-0.513-1.917-1.27-2.55-2.27-0.633-1-0.95-2.233-0.95-3.7v0c0-1 0.277-1.957 0.83-2.87 0.547-0.92 1.437-1.747 2.67-2.48v0c1.233-0.7 2.843-1.283 4.83-1.75 1.98-0.467 4.403-0.733 7.27-0.8v0-1.95c0-1.967-0.423-3.46-1.27-4.48-0.853-1.013-2.097-1.52-3.73-1.52v0c-0.867 0-1.773 0.223-2.72 0.67-0.953 0.453-1.83 0.903-2.63 1.35-0.8 0.453-1.433 0.68-1.9 0.68v0c-0.3 0-0.557-0.083-0.77-0.25-0.22-0.167-0.397-0.367-0.53-0.6v0l-0.8-1.4c1.4-1.367 2.91-2.383 4.53-3.05 1.613-0.667 3.403-1 5.37-1v0c1.9 0 3.5 0.4 4.8 1.2 1.3 0.8 2.293 1.917 2.98 3.35 0.68 1.433 1.02 3.117 1.02 5.05v0 16.2h-1.95c-0.433 0-0.783-0.067-1.05-0.2-0.267-0.133-0.45-0.417-0.55-0.85v0l-0.5-2.35c-1.333 1.2-2.667 2.133-4 2.8-1.333 0.667-2.933 1-4.8 1zM85.9-2.75v0c1.5 0 2.817-0.3 3.95-0.9 1.133-0.6 2.217-1.433 3.25-2.5v0-5.25c-1.733 0.033-3.3 0.157-4.7 0.37-1.4 0.22-2.59 0.52-3.57 0.9-0.987 0.387-1.737 0.87-2.25 1.45-0.52 0.587-0.78 1.297-0.78 2.13v0c0 1.333 0.393 2.3 1.18 2.9 0.78 0.6 1.753 0.9 2.92 0.9zM101.05 0h-5.1l0.55-3.9 3.75 0.8c0.267 0.033 0.467 0.14 0.6 0.32 0.133 0.187 0.2 0.43 0.2 0.73v0zM111.15 0h-4.45v-25.35h2.55c0.5 0 0.85 0.09 1.05 0.27 0.2 0.187 0.317 0.513 0.35 0.98v0l0.3 3.95c0.867-1.767 1.933-3.15 3.2-4.15 1.267-1 2.767-1.5 4.5-1.5v0c0.7 0 1.333 0.083 1.9 0.25 0.567 0.167 1.083 0.383 1.55 0.65v0l-0.55 3.35c-0.033 0.2-0.123 0.35-0.27 0.45-0.153 0.1-0.33 0.15-0.53 0.15v0c-0.233 0-0.683-0.077-1.35-0.23-0.667-0.147-1.25-0.22-1.75-0.22v0c-1.533 0-2.823 0.45-3.87 1.35-1.053 0.9-1.93 2.2-2.63 3.9v0zM114.75 0h-5.1l0.55-3.9 3.75 0.8c0.267 0.033 0.467 0.14 0.6 0.32 0.133 0.187 0.2 0.43 0.2 0.73v0zM108.2 0h-5.1v-2.05c0-0.3 0.067-0.543 0.2-0.73 0.133-0.18 0.333-0.287 0.6-0.32v0l3.75-0.8zM103.1-25.35h5.1l-0.55 3.9-3.75-0.8c-0.267-0.067-0.467-0.183-0.6-0.35-0.133-0.167-0.2-0.4-0.2-0.7v0zM132.25 0h-4.45v-25.35h4.45zM129.3 0h-5.1v-2.05c0-0.3 0.067-0.543 0.2-0.73 0.133-0.18 0.333-0.287 0.6-0.32v0l3.75-0.8zM135.85 0h-5.1l0.55-3.9 3.75 0.8c0.267 0.033 0.467 0.14 0.6 0.32 0.133 0.187 0.2 0.43 0.2 0.73v0zM124.2-25.35h5.1l-0.55 3.9-3.75-0.8c-0.267-0.067-0.467-0.183-0.6-0.35-0.133-0.167-0.2-0.4-0.2-0.7v0zM129.95-30.15v0c-0.833 0-1.567-0.317-2.2-0.95-0.633-0.633-0.95-1.367-0.95-2.2v0c0-0.867 0.317-1.617 0.95-2.25 0.633-0.633 1.367-0.95 2.2-0.95v0c0.867 0 1.617 0.317 2.25 0.95 0.633 0.633 0.95 1.383 0.95 2.25v0c0 0.833-0.317 1.567-0.95 2.2-0.633 0.633-1.383 0.95-2.25 0.95zM150.3 0.35v0c-2.433 0-4.557-0.55-6.37-1.65-1.82-1.1-3.23-2.667-4.23-4.7-1-2.033-1.5-4.433-1.5-7.2v0c0-2.367 0.483-4.5 1.45-6.4 0.967-1.9 2.343-3.4 4.13-4.5 1.78-1.1 3.87-1.65 6.27-1.65v0c2.1 0 3.933 0.467 5.5 1.4 1.567 0.933 2.79 2.24 3.67 3.92 0.887 1.687 1.33 3.697 1.33 6.03v0c0 0.7-0.077 1.167-0.23 1.4-0.147 0.233-0.437 0.35-0.87 0.35v0h-16.85c0 0.1 0 0.207 0 0.32 0 0.12 0 0.23 0 0.33v0c0.167 2.8 0.95 4.973 2.35 6.52 1.4 1.553 3.3 2.33 5.7 2.33v0c1.033 0 2.057-0.21 3.07-0.63 1.02-0.413 1.923-0.82 2.71-1.22 0.78-0.4 1.337-0.6 1.67-0.6v0c0.367 0 0.65 0.133 0.85 0.4v0l1.25 1.65c-0.667 0.867-1.557 1.59-2.67 2.17-1.12 0.587-2.313 1.02-3.58 1.3-1.267 0.287-2.483 0.43-3.65 0.43zM142.75-15.45v0h13.8c0-2.067-0.567-3.75-1.7-5.05-1.133-1.3-2.7-1.95-4.7-1.95v0c-2.167 0-3.867 0.617-5.1 1.85-1.233 1.233-2 2.95-2.3 5.15zM172.2 0.4v0c-1.2 0-2.54-0.133-4.02-0.4-1.487-0.267-2.763-0.6-3.83-1v0-3.7l2.2 0.5c0.433 0.3 1.127 0.607 2.08 0.92 0.947 0.32 2.053 0.48 3.32 0.48v0c1.9 0 3.3-0.393 4.2-1.18 0.9-0.78 1.35-1.737 1.35-2.87v0c0-1-0.3-1.767-0.9-2.3-0.6-0.533-1.4-0.967-2.4-1.3-1-0.333-2.083-0.683-3.25-1.05v0c-1.2-0.4-2.3-0.867-3.3-1.4-1-0.533-1.8-1.227-2.4-2.08-0.6-0.847-0.9-1.92-0.9-3.22v0c0-1.5 0.393-2.817 1.18-3.95 0.78-1.133 1.843-2.017 3.19-2.65 1.353-0.633 2.88-0.95 4.58-0.95v0c0.967 0 2.043 0.117 3.23 0.35 1.18 0.233 2.47 0.583 3.87 1.05v0 3l-2.65-0.35c-0.7-0.2-1.407-0.367-2.12-0.5-0.72-0.133-1.413-0.2-2.08-0.2v0c-0.967 0-1.827 0.15-2.58 0.45-0.747 0.3-1.337 0.717-1.77 1.25-0.433 0.533-0.65 1.15-0.65 1.85v0c0 0.933 0.36 1.673 1.08 2.22 0.713 0.553 1.587 0.997 2.62 1.33 1.033 0.333 2.017 0.65 2.95 0.95v0c1.1 0.333 2.14 0.767 3.12 1.3 0.987 0.533 1.797 1.233 2.43 2.1 0.633 0.867 0.95 2 0.95 3.4v0c0 1.5-0.39 2.85-1.17 4.05-0.787 1.2-1.89 2.15-3.31 2.85-1.413 0.7-3.087 1.05-5.02 1.05zM177.7-18.65l-0.5-3.75 3.2 0.65v3.9h-1.65c-0.333 0-0.583-0.073-0.75-0.22-0.167-0.153-0.267-0.347-0.3-0.58zM167.05-6.8l0.5 3.75-3.2-0.65v-3.9h1.65c0.367 0 0.627 0.073 0.78 0.22 0.147 0.153 0.237 0.347 0.27 0.58z" fill="#ffffff" fill-rule="nonzero" stroke="none" stroke-width="1" stroke-linecap="butt" stroke-linejoin="miter" stroke-miterlimit="10" stroke-dasharray="" stroke-dashoffset="0" font-family="none" font-weight="none" font-size="none" text-anchor="none" style="mix-blend-mode: normal" data-fill-palette-color="primary" opacity="1"></path></g></svg></g></svg></g><g transform="matrix(1,0,0,1,0,213.42959801723077)"><svg viewBox="0 0 232.95581579487177 19.150992427507976" height="19.150992427507976" width="232.95581579487177"><g transform="matrix(1,0,0,1,0,0)"><svg width="232.95581579487177" viewBox="0.15 -37.35 607.5400000000001 49.95" height="19.150992427507976" data-palette-color="#2672de"><path d="M24.35 0L17.55-12.75 10.75 0 9.8 0 0.15-22.95 5.95-22.95 10.9-9.6 17.45-22.95 17.65-22.95 24.25-9.7 29.2-22.95 34.9-22.95 25.3 0 24.35 0ZM38.85 0L38.85-36.75 44.1-36.75 44.1-22.95 43.9-18.7Q44.85-20.8 46.95-22.18 49.05-23.55 51.85-23.55L51.85-23.55Q55.4-23.55 57.3-22.08 59.2-20.6 59.85-17.95 60.5-15.3 60.5-11.05L60.5-11.05 60.5 0 55.15 0 55.15-11.1Q55.15-14 54.82-15.65 54.5-17.3 53.52-18.15 52.55-19 50.7-19L50.7-19Q49.2-19 47.67-18.1 46.15-17.2 45.15-15.48 44.15-13.75 44.15-11.4L44.15-11.4 44.15 0 38.85 0ZM78.2 0.5Q74.1 0.5 71.35-1.13 68.6-2.75 67.3-5.48 66-8.2 66-11.45L66-11.45Q66-15.1 67.52-17.85 69.05-20.6 71.75-22.08 74.45-23.55 77.85-23.55L77.85-23.55Q83.15-23.55 85.72-20.63 88.3-17.7 88.3-12.4L88.3-12.4Q88.3-11.05 88.15-9.6L88.15-9.6 71.65-9.6Q72.2-6.55 73.82-5.2 75.45-3.85 78.35-3.85L78.35-3.85Q80.75-3.85 82.3-4.25 83.85-4.65 85.15-5.35L85.15-5.35 86.8-1.5Q85.55-0.7 83.4-0.1 81.25 0.5 78.2 0.5L78.2 0.5ZM71.65-13.35L83.05-13.35Q83.1-16.45 81.7-17.73 80.3-19 77.7-19L77.7-19Q72.45-19 71.65-13.35L71.65-13.35ZM93.79 0L93.79-22.95 99.19-22.95 99.19-18.45Q99.99-20.75 101.79-22.15 103.59-23.55 105.89-23.55L105.89-23.55Q107.49-23.55 108.09-23.25L108.09-23.25 107.34-17.8Q106.89-18.1 105.39-18.1L105.39-18.1Q103.04-18.1 101.12-16.6 99.19-15.1 99.19-11.8L99.19-11.8 99.19 0 93.79 0ZM122.74 0.5Q118.64 0.5 115.89-1.13 113.14-2.75 111.84-5.48 110.54-8.2 110.54-11.45L110.54-11.45Q110.54-15.1 112.07-17.85 113.59-20.6 116.29-22.08 118.99-23.55 122.39-23.55L122.39-23.55Q127.69-23.55 130.27-20.63 132.84-17.7 132.84-12.4L132.84-12.4Q132.84-11.05 132.69-9.6L132.69-9.6 116.19-9.6Q116.74-6.55 118.37-5.2 119.99-3.85 122.89-3.85L122.89-3.85Q125.29-3.85 126.84-4.25 128.39-4.65 129.69-5.35L129.69-5.35 131.34-1.5Q130.09-0.7 127.94-0.1 125.79 0.5 122.74 0.5L122.74 0.5ZM116.19-13.35L127.59-13.35Q127.64-16.45 126.24-17.73 124.84-19 122.24-19L122.24-19Q116.99-19 116.19-13.35L116.19-13.35ZM162.79-13.35L171.49 0 165.14 0 160.49-7.5 159.19-10.05 156.19-6.8 156.19 0 150.99 0 150.99-36.75 156.14-36.75 156.14-16.6 156.04-12.7 164.79-22.95 171.44-22.95 162.79-13.35ZM175.78 0L175.78-22.95 181.08-22.95 181.13-18.75Q182.08-20.85 184.13-22.2 186.18-23.55 188.93-23.55L188.93-23.55Q192.48-23.55 194.38-22.08 196.28-20.6 196.93-17.95 197.58-15.3 197.58-11.05L197.58-11.05 197.58 0 192.18 0 192.18-10.9Q192.18-15.25 191.33-17.18 190.48-19.1 187.83-19.1L187.83-19.1Q186.33-19.1 184.78-18.18 183.23-17.25 182.21-15.5 181.18-13.75 181.18-11.4L181.18-11.4 181.18 0 175.78 0ZM215.23 0.5Q211.68 0.5 208.93-1.1 206.18-2.7 204.68-5.45 203.18-8.2 203.18-11.55L203.18-11.55Q203.18-14.85 204.66-17.6 206.13-20.35 208.88-21.95 211.63-23.55 215.23-23.55L215.23-23.55Q218.83-23.55 221.56-21.95 224.28-20.35 225.76-17.6 227.23-14.85 227.23-11.55L227.23-11.55Q227.23-8.2 225.73-5.45 224.23-2.7 221.51-1.1 218.78 0.5 215.23 0.5L215.23 0.5ZM215.38-3.9Q218.28-3.9 219.96-6.05 221.63-8.2 221.63-11.45L221.63-11.45Q221.63-14.7 219.83-16.93 218.03-19.15 215.08-19.15L215.08-19.15Q212.23-19.15 210.51-16.95 208.78-14.75 208.78-11.45L208.78-11.45Q208.78-8.25 210.63-6.08 212.48-3.9 215.38-3.9L215.38-3.9ZM253.78 0L246.98-12.75 240.18 0 239.23 0 229.58-22.95 235.38-22.95 240.33-9.6 246.88-22.95 247.08-22.95 253.68-9.7 258.63-22.95 264.33-22.95 254.73 0 253.78 0ZM268.48 0L268.48-36.75 273.83-36.75 273.83 0 268.48 0ZM292.27 0.5Q288.17 0.5 285.42-1.13 282.67-2.75 281.37-5.48 280.07-8.2 280.07-11.45L280.07-11.45Q280.07-15.1 281.6-17.85 283.12-20.6 285.82-22.08 288.52-23.55 291.92-23.55L291.92-23.55Q297.22-23.55 299.8-20.63 302.37-17.7 302.37-12.4L302.37-12.4Q302.37-11.05 302.22-9.6L302.22-9.6 285.72-9.6Q286.27-6.55 287.9-5.2 289.52-3.85 292.42-3.85L292.42-3.85Q294.82-3.85 296.37-4.25 297.92-4.65 299.22-5.35L299.22-5.35 300.87-1.5Q299.62-0.7 297.47-0.1 295.32 0.5 292.27 0.5L292.27 0.5ZM285.72-13.35L297.12-13.35Q297.17-16.45 295.77-17.73 294.37-19 291.77-19L291.77-19Q286.52-19 285.72-13.35L285.72-13.35ZM318.17 0.5Q315.07 0.5 312.45-0.98 309.82-2.45 308.25-5.18 306.67-7.9 306.67-11.55L306.67-11.55Q306.67-17 309.72-20.28 312.77-23.55 317.97-23.55L317.97-23.55Q320.87-23.55 323.27-22.13 325.67-20.7 326.52-18.7L326.52-18.7 326.27-22.6 326.27-36.75 331.57-36.75 331.57 0 326.42 0 326.32-4.05Q325.47-2.25 323.22-0.88 320.97 0.5 318.17 0.5L318.17 0.5ZM319.07-4.05Q321.92-4.05 323.87-6.03 325.82-8 325.82-11.2L325.82-11.2 325.82-11.55Q325.82-13.7 324.92-15.4 324.02-17.1 322.47-18.05 320.92-19 319.07-19L319.07-19Q315.87-19 314.12-16.93 312.37-14.85 312.37-11.55L312.37-11.55Q312.37-8.2 314.1-6.13 315.82-4.05 319.07-4.05L319.07-4.05ZM349.87 12Q347.32 12 344.84 11.3 342.37 10.6 341.32 10L341.32 10 342.52 5Q345.82 7.15 349.72 7.15L349.72 7.15Q352.72 7.15 354.77 5.7 356.82 4.25 356.87 0.05L356.87 0.05 356.87-4.05Q355.82-2.1 353.47-0.8 351.12 0.5 348.27 0.5L348.27 0.5Q345.27 0.5 342.77-0.98 340.27-2.45 338.82-5.2 337.37-7.95 337.37-11.6L337.37-11.6Q337.37-15.1 338.74-17.82 340.12-20.55 342.67-22.05 345.22-23.55 348.62-23.55L348.62-23.55Q350.62-23.55 352.37-22.85 354.12-22.15 355.34-21.13 356.57-20.1 356.97-19.1L356.97-19.1 357.07-22.95 362.17-22.95 362.17-0.15Q362.17 5.7 359.17 8.85 356.17 12 349.87 12L349.87 12ZM349.77-4.05Q352.62-4.05 354.57-6.03 356.52-8 356.52-11.2L356.52-11.2 356.52-11.55Q356.52-13.7 355.62-15.4 354.72-17.1 353.17-18.05 351.62-19 349.77-19L349.77-19Q346.57-19 344.82-16.93 343.07-14.85 343.07-11.55L343.07-11.55Q343.07-8.2 344.79-6.13 346.52-4.05 349.77-4.05L349.77-4.05ZM379.92 0.5Q375.82 0.5 373.07-1.13 370.32-2.75 369.02-5.48 367.72-8.2 367.72-11.45L367.72-11.45Q367.72-15.1 369.24-17.85 370.77-20.6 373.47-22.08 376.17-23.55 379.57-23.55L379.57-23.55Q384.87-23.55 387.44-20.63 390.02-17.7 390.02-12.4L390.02-12.4Q390.02-11.05 389.87-9.6L389.87-9.6 373.37-9.6Q373.92-6.55 375.54-5.2 377.17-3.85 380.07-3.85L380.07-3.85Q382.47-3.85 384.02-4.25 385.57-4.65 386.87-5.35L386.87-5.35 388.52-1.5Q387.27-0.7 385.12-0.1 382.97 0.5 379.92 0.5L379.92 0.5ZM373.37-13.35L384.77-13.35Q384.82-16.45 383.42-17.73 382.02-19 379.42-19L379.42-19Q374.17-19 373.37-13.35L373.37-13.35ZM410.06 0L410.06-18.65 406.36-18.65 406.36-22.95 410.06-22.95 410.06-27.9Q410.06-32.4 412.24-34.88 414.41-37.35 418.61-37.35L418.61-37.35Q420.31-37.35 422.46-36.4L422.46-36.4 421.41-31.3Q421.06-31.7 420.34-32.08 419.61-32.45 418.76-32.45L418.76-32.45Q415.41-32.45 415.36-28.1L415.36-28.1 415.36-22.95 420.76-22.95 420.76-18.65 415.36-18.65 415.36 0 410.06 0ZM426.41 0L426.41-22.95 432.01-22.95 432.01 0 426.41 0ZM429.16-27.25Q427.61-27.25 426.56-28.3 425.51-29.35 425.51-30.9L425.51-30.9Q425.51-32.3 426.56-33.3 427.61-34.3 429.16-34.3L429.16-34.3Q430.66-34.3 431.71-33.3 432.76-32.3 432.76-30.9L432.76-30.9Q432.76-29.35 431.73-28.3 430.71-27.25 429.16-27.25L429.16-27.25ZM439.51 0L439.51-22.95 444.81-22.95 444.86-18.75Q445.81-20.85 447.86-22.2 449.91-23.55 452.66-23.55L452.66-23.55Q456.21-23.55 458.11-22.08 460.01-20.6 460.66-17.95 461.31-15.3 461.31-11.05L461.31-11.05 461.31 0 455.91 0 455.91-10.9Q455.91-15.25 455.06-17.18 454.21-19.1 451.56-19.1L451.56-19.1Q450.06-19.1 448.51-18.18 446.96-17.25 445.93-15.5 444.91-13.75 444.91-11.4L444.91-11.4 444.91 0 439.51 0ZM478.4 0.5Q475.3 0.5 472.68-0.98 470.05-2.45 468.48-5.18 466.9-7.9 466.9-11.55L466.9-11.55Q466.9-17 469.95-20.28 473-23.55 478.2-23.55L478.2-23.55Q481.1-23.55 483.5-22.13 485.9-20.7 486.75-18.7L486.75-18.7 486.5-22.6 486.5-36.75 491.8-36.75 491.8 0 486.65 0 486.55-4.05Q485.7-2.25 483.45-0.88 481.2 0.5 478.4 0.5L478.4 0.5ZM479.3-4.05Q482.15-4.05 484.1-6.03 486.05-8 486.05-11.2L486.05-11.2 486.05-11.55Q486.05-13.7 485.15-15.4 484.25-17.1 482.7-18.05 481.15-19 479.3-19L479.3-19Q476.1-19 474.35-16.93 472.6-14.85 472.6-11.55L472.6-11.55Q472.6-8.2 474.33-6.13 476.05-4.05 479.3-4.05L479.3-4.05ZM506.85 0.5Q504.45 0.5 501.88-0.13 499.3-0.75 498.2-1.6L498.2-1.6 500-5.85Q503-3.75 506.85-3.75L506.85-3.75Q510.7-3.75 510.7-6L510.7-6Q510.7-7 509.9-7.55 509.1-8.1 507.05-8.85L507.05-8.85 505.15-9.55Q502.15-10.75 500.4-12.43 498.65-14.1 498.65-16.85L498.65-16.85Q498.65-20 501.13-21.78 503.6-23.55 507.75-23.55L507.75-23.55Q509.8-23.55 511.78-23.1 513.75-22.65 514.8-21.95L514.8-21.95 512.85-17.65Q512.2-18.3 510.78-18.78 509.35-19.25 507.6-19.25L507.6-19.25Q504.05-19.25 504.05-17.1L504.05-17.1Q504.05-15.9 505-15.28 505.95-14.65 508.1-13.9L508.1-13.9Q508.3-13.85 509.65-13.35L509.65-13.35Q512.85-12.1 514.4-10.5 515.95-8.9 515.95-6.4L515.95-6.4Q515.95-3 513.38-1.25 510.8 0.5 506.85 0.5L506.85 0.5ZM535.45 12.6L540.39 0.7 530.89-22.95 537-22.95 541.89-8.35 543-4.8 544.1-8.35 549.25-22.95 555.14-22.95 541.04 12.6 535.45 12.6ZM569.34 0.5Q565.79 0.5 563.04-1.1 560.29-2.7 558.79-5.45 557.29-8.2 557.29-11.55L557.29-11.55Q557.29-14.85 558.77-17.6 560.24-20.35 562.99-21.95 565.74-23.55 569.34-23.55L569.34-23.55Q572.94-23.55 575.67-21.95 578.39-20.35 579.87-17.6 581.34-14.85 581.34-11.55L581.34-11.55Q581.34-8.2 579.84-5.45 578.34-2.7 575.62-1.1 572.89 0.5 569.34 0.5L569.34 0.5ZM569.49-3.9Q572.39-3.9 574.07-6.05 575.74-8.2 575.74-11.45L575.74-11.45Q575.74-14.7 573.94-16.93 572.14-19.15 569.19-19.15L569.19-19.15Q566.34-19.15 564.62-16.95 562.89-14.75 562.89-11.45L562.89-11.45Q562.89-8.25 564.74-6.08 566.59-3.9 569.49-3.9L569.49-3.9ZM595.04 0.5Q590.29 0.5 588.51-2.3 586.74-5.1 586.74-10.1L586.74-10.1 586.74-22.95 592.14-22.95 592.14-11.45Q592.14-8.6 592.46-7.03 592.79-5.45 593.76-4.7 594.74-3.95 596.69-3.95L596.69-3.95Q598.09-3.95 599.39-4.75 600.69-5.55 601.51-6.93 602.34-8.3 602.34-9.95L602.34-9.95 602.34-22.95 607.69-22.95 607.69 0 603.29 0 602.69-3.35Q601.44-1.4 599.56-0.45 597.69 0.5 595.04 0.5L595.04 0.5Z" opacity="1" transform="matrix(1,0,0,1,0,0)" fill="#ffffff" class="slogan-text-1" data-fill-palette-color="secondary" id="text-1"></path></svg></g></svg></g></svg></g></svg></g><g transform="matrix(1,0,0,1,0,16.05033596311482)"><svg viewBox="0 0 242.07660125538462 201.6428214707328" height="201.6428214707328" width="242.07660125538462"><g><svg xmlns="http://www.w3.org/2000/svg" xmlns:xlink="http://www.w3.org/1999/xlink" version="1.1" x="0" y="0" viewBox="20.00079604298377 22.95416953009731 64.93722069414592 54.09083046990269" enable-background="new 0 0 100 100" xml:space="preserve" height="201.6428214707328" width="242.07660125538462" class="icon-icon-0" data-fill-palette-color="accent" id="icon-0"><g fill="#1a4480" data-fill-palette-color="accent"><path d="M70.907 48.925C74.18 48.263 77.453 47.059 80.727 46.397A0.3 0.3 0 0 0 80.895 46.293 0.3 0.3 0 0 0 80.965 46.111V45.443C80.965 45.312 80.858 45.225 80.726 45.253 77.453 45.915 74.18 47.118 70.906 47.78A0.306 0.306 0 0 0 70.666 48.067L70.665 48.733A0.2 0.2 0 0 0 70.736 48.889 0.2 0.2 0 0 0 70.907 48.925" fill="#ffffff" data-fill-palette-color="accent"></path><path d="M80.895 47.769A0.2 0.2 0 0 0 80.727 47.733C77.454 48.396 74.181 49.599 70.907 50.261A0.31 0.31 0 0 0 70.667 50.548V51.214C70.667 51.277 70.691 51.333 70.737 51.37A0.2 0.2 0 0 0 70.905 51.406C74.179 50.744 77.453 49.539 80.727 48.877A0.3 0.3 0 0 0 80.895 48.773 0.3 0.3 0 0 0 80.966 48.591V47.923A0.2 0.2 0 0 0 80.895 47.769" fill="#ffffff" data-fill-palette-color="accent"></path><path d="M70.907 53.887C74.18 53.224 77.453 52.021 80.727 51.358A0.3 0.3 0 0 0 80.895 51.254 0.3 0.3 0 0 0 80.965 51.072V50.405A0.2 0.2 0 0 0 80.895 50.25 0.2 0.2 0 0 0 80.727 50.214C77.454 50.877 74.181 52.081 70.907 52.743A0.32 0.32 0 0 0 70.667 53.03V53.696C70.667 53.827 70.774 53.913 70.907 53.887" fill="#ffffff" data-fill-palette-color="accent"></path><path d="M83.424 39.514C78.366 39.952 73.308 42.391 68.25 42.84 63.192 42.391 58.134 39.952 53.076 39.514A1.35 1.35 0 0 0 52.007 39.895 1.48 1.48 0 0 0 51.564 40.958V62.694C51.564 63.098 51.722 63.476 52.007 63.769S52.673 64.238 53.076 64.273C57.927 64.694 62.778 66.951 67.629 67.531 67.809 67.597 68.006 67.623 68.209 67.604L68.251 67.6 68.293 67.604C68.496 67.623 68.692 67.597 68.873 67.531 73.724 66.951 78.575 64.694 83.426 64.273A1.7 1.7 0 0 0 84.495 63.769 1.53 1.53 0 0 0 84.938 62.694V40.958A1.48 1.48 0 0 0 84.495 39.895 1.35 1.35 0 0 0 83.424 39.514M66.697 64.38C62.66 63.73 58.624 62.073 54.588 61.437L54.589 42.725C58.625 43.361 62.66 45.018 66.697 45.667zM69.803 64.38V45.667C73.84 45.018 77.875 43.36 81.911 42.725L81.912 61.437C77.876 62.073 73.84 63.729 69.803 64.38" fill="#ffffff" data-fill-palette-color="accent"></path><path d="M55.773 46.396C59.046 47.058 62.319 48.262 65.593 48.924 65.657 48.937 65.718 48.924 65.763 48.888A0.2 0.2 0 0 0 65.834 48.732L65.833 48.066A0.305 0.305 0 0 0 65.593 47.779C62.32 47.117 59.047 45.914 55.773 45.252 55.642 45.225 55.534 45.312 55.534 45.442V46.11A0.3 0.3 0 0 0 55.604 46.292 0.3 0.3 0 0 0 55.773 46.396" fill="#ffffff" data-fill-palette-color="accent"></path><path d="M55.773 48.877C59.046 49.539 62.321 50.744 65.595 51.406A0.2 0.2 0 0 0 65.763 51.37 0.2 0.2 0 0 0 65.833 51.214V50.548A0.31 0.31 0 0 0 65.593 50.261C62.32 49.599 59.047 48.396 55.773 47.733A0.2 0.2 0 0 0 55.605 47.769 0.2 0.2 0 0 0 55.535 47.923V48.591A0.3 0.3 0 0 0 55.606 48.773C55.647 48.825 55.708 48.863 55.773 48.877" fill="#ffffff" data-fill-palette-color="accent"></path><path d="M65.593 53.887C65.726 53.913 65.833 53.827 65.833 53.696V53.03A0.32 0.32 0 0 0 65.593 52.743C62.32 52.081 59.047 50.877 55.773 50.214A0.2 0.2 0 0 0 55.605 50.25 0.2 0.2 0 0 0 55.535 50.405V51.072C55.535 51.138 55.562 51.203 55.605 51.254A0.3 0.3 0 0 0 55.773 51.358C59.047 52.021 62.32 53.224 65.593 53.887" fill="#ffffff" data-fill-palette-color="accent"></path><path d="M70.907 56.25C74.18 55.588 77.453 54.384 80.727 53.721A0.3 0.3 0 0 0 80.895 53.617 0.3 0.3 0 0 0 80.965 53.434V52.767C80.965 52.636 80.858 52.548 80.726 52.576 77.453 53.238 74.18 54.442 70.906 55.104A0.306 0.306 0 0 0 70.666 55.391L70.665 56.057A0.2 0.2 0 0 0 70.736 56.213C70.781 56.249 70.843 56.263 70.907 56.25" fill="#ffffff" data-fill-palette-color="accent"></path><path d="M80.895 55.093A0.2 0.2 0 0 0 80.727 55.058C77.454 55.72 74.181 56.924 70.907 57.585A0.31 0.31 0 0 0 70.667 57.872V58.539C70.667 58.601 70.691 58.659 70.737 58.695A0.2 0.2 0 0 0 70.905 58.73C74.179 58.068 77.453 56.864 80.727 56.203A0.3 0.3 0 0 0 80.895 56.099 0.3 0.3 0 0 0 80.966 55.916V55.249A0.2 0.2 0 0 0 80.895 55.093" fill="#ffffff" data-fill-palette-color="accent"></path><path d="M80.727 57.539C77.454 58.201 74.181 59.404 70.907 60.067A0.32 0.32 0 0 0 70.667 60.353V61.02C70.667 61.151 70.774 61.239 70.907 61.211 74.18 60.548 77.453 59.344 80.727 58.681A0.3 0.3 0 0 0 80.895 58.577 0.3 0.3 0 0 0 80.965 58.395V57.729A0.2 0.2 0 0 0 80.895 57.573C80.851 57.539 80.791 57.526 80.727 57.539" fill="#ffffff" data-fill-palette-color="accent"></path><path d="M55.535 53.435C55.535 53.498 55.56 53.564 55.605 53.618A0.3 0.3 0 0 0 55.773 53.722C59.046 54.385 62.319 55.589 65.593 56.251A0.2 0.2 0 0 0 65.763 56.215 0.2 0.2 0 0 0 65.834 56.059L65.833 55.393A0.305 0.305 0 0 0 65.593 55.106C62.32 54.444 59.047 53.24 55.773 52.578 55.642 52.551 55.534 52.639 55.534 52.769z" fill="#ffffff" data-fill-palette-color="accent"></path><path d="M55.773 56.203C59.046 56.864 62.321 58.068 65.595 58.73 65.658 58.743 65.718 58.73 65.763 58.695A0.2 0.2 0 0 0 65.833 58.539V57.872A0.31 0.31 0 0 0 65.593 57.585C62.32 56.924 59.047 55.72 55.773 55.058A0.2 0.2 0 0 0 55.605 55.093 0.2 0.2 0 0 0 55.535 55.249V55.916A0.31 0.31 0 0 0 55.773 56.203" fill="#ffffff" data-fill-palette-color="accent"></path><path d="M65.593 60.067C62.32 59.404 59.047 58.201 55.773 57.539A0.2 0.2 0 0 0 55.605 57.574 0.2 0.2 0 0 0 55.535 57.73V58.396A0.3 0.3 0 0 0 55.605 58.578 0.3 0.3 0 0 0 55.773 58.682C59.046 59.345 62.319 60.549 65.593 61.212 65.726 61.239 65.833 61.151 65.833 61.021V60.354A0.32 0.32 0 0 0 65.593 60.067" fill="#ffffff" data-fill-palette-color="accent"></path></g><path d="M76.422 68.066C74.126 68.719 71.753 69.395 69.332 69.705A3.5 3.5 0 0 1 68.251 69.82C68.194 69.822 68.138 69.824 68.082 69.824 67.772 69.824 67.466 69.784 67.17 69.705 64.749 69.395 62.376 68.72 60.08 68.066 57.576 67.353 55.211 66.68 52.885 66.478A3.92 3.92 0 0 1 50.423 65.314 3.74 3.74 0 0 1 49.403 63.222H47.1V44.439H49.35V40.958C49.35 39.964 49.755 39 50.462 38.31A3.55 3.55 0 0 1 53.268 37.308C56.016 37.546 58.699 38.311 61.293 39.05 63.712 39.739 66.001 40.392 68.251 40.616 70.424 40.399 72.638 39.781 74.967 39.118L65.221 32.515 52.024 23.576A3.6 3.6 0 0 0 47.979 23.576L34.784 32.515 21.587 41.454A3.604 3.604 0 0 0 23.608 48.044H26.878V59.651A3.61 3.61 0 0 0 23.782 62.997H23.608A3.605 3.605 0 0 0 20.003 66.602V73.438A3.607 3.607 0 0 0 23.608 77.045H76.396A3.606 3.606 0 0 0 80.001 73.438V67.102C78.832 67.382 77.644 67.719 76.422 68.066M41.691 63.223H35.89V44.439H41.691z" fill="#ffffff" data-fill-palette-color="accent"></path></svg></g></svg></g></svg></g><defs></defs></svg><rect width="395.52" height="155.25504932941502" fill="none" stroke="none" visibility="hidden"></rect></g></svg></g></svg>